<mxfile host="app.diagrams.net" agent="Mozilla/5.0 (Windows NT 10.0; Win64; x64) AppleWebKit/537.36 (KHTML, like Gecko) Chrome/131.0.0.0 Safari/537.36" version="24.8.6">
  <diagram name="Page-1" id="PERb9RkbwCbBSu2lS3tK">
    <mxGraphModel grid="0" page="0" gridSize="10" guides="1" tooltips="1" connect="1" arrows="1" fold="1" pageScale="1" pageWidth="827" pageHeight="1169" math="0" shadow="0">
      <root>
        <mxCell id="0" />
        <mxCell id="1" parent="0" />
        <mxCell id="tga_QLn9dsM_9BTm4A0y-5" style="edgeStyle=none;curved=0;rounded=0;orthogonalLoop=1;jettySize=auto;html=1;fontSize=12;startSize=8;endSize=8;" edge="1" parent="1" source="tga_QLn9dsM_9BTm4A0y-1" target="tga_QLn9dsM_9BTm4A0y-2">
          <mxGeometry relative="1" as="geometry">
            <Array as="points">
              <mxPoint x="196" y="116" />
            </Array>
          </mxGeometry>
        </mxCell>
        <mxCell id="tga_QLn9dsM_9BTm4A0y-1" value="Giáo viên" style="shape=umlLifeline;perimeter=lifelinePerimeter;whiteSpace=wrap;html=1;container=1;dropTarget=0;collapsible=0;recursiveResize=0;outlineConnect=0;portConstraint=eastwest;newEdgeStyle={&quot;curved&quot;:0,&quot;rounded&quot;:0};" vertex="1" parent="1">
          <mxGeometry x="-72" y="6" width="100" height="414" as="geometry" />
        </mxCell>
        <mxCell id="tga_QLn9dsM_9BTm4A0y-7" style="edgeStyle=none;curved=0;rounded=0;orthogonalLoop=1;jettySize=auto;html=1;fontSize=12;startSize=8;endSize=8;" edge="1" parent="1">
          <mxGeometry relative="1" as="geometry">
            <mxPoint x="234" y="158" as="sourcePoint" />
            <mxPoint x="490" y="158" as="targetPoint" />
          </mxGeometry>
        </mxCell>
        <mxCell id="tga_QLn9dsM_9BTm4A0y-13" style="edgeStyle=none;curved=0;rounded=0;orthogonalLoop=1;jettySize=auto;html=1;fontSize=12;startSize=8;endSize=8;" edge="1" parent="1">
          <mxGeometry relative="1" as="geometry">
            <mxPoint x="239.5" y="361" as="sourcePoint" />
            <mxPoint x="744.5" y="361" as="targetPoint" />
          </mxGeometry>
        </mxCell>
        <mxCell id="tga_QLn9dsM_9BTm4A0y-2" value="Hệ thống" style="shape=umlLifeline;perimeter=lifelinePerimeter;whiteSpace=wrap;html=1;container=1;dropTarget=0;collapsible=0;recursiveResize=0;outlineConnect=0;portConstraint=eastwest;newEdgeStyle={&quot;curved&quot;:0,&quot;rounded&quot;:0};" vertex="1" parent="1">
          <mxGeometry x="186" y="6" width="100" height="414" as="geometry" />
        </mxCell>
        <mxCell id="tga_QLn9dsM_9BTm4A0y-10" style="edgeStyle=none;curved=0;rounded=0;orthogonalLoop=1;jettySize=auto;html=1;fontSize=12;startSize=8;endSize=8;" edge="1" parent="1">
          <mxGeometry relative="1" as="geometry">
            <mxPoint x="494" y="246" as="sourcePoint" />
            <mxPoint x="238" y="246" as="targetPoint" />
          </mxGeometry>
        </mxCell>
        <mxCell id="tga_QLn9dsM_9BTm4A0y-3" value="Cơ sơ dữ liệu" style="shape=umlLifeline;perimeter=lifelinePerimeter;whiteSpace=wrap;html=1;container=1;dropTarget=0;collapsible=0;recursiveResize=0;outlineConnect=0;portConstraint=eastwest;newEdgeStyle={&quot;curved&quot;:0,&quot;rounded&quot;:0};" vertex="1" parent="1">
          <mxGeometry x="442" y="3" width="100" height="306" as="geometry" />
        </mxCell>
        <mxCell id="tga_QLn9dsM_9BTm4A0y-9" value="" style="html=1;points=[[0,0,0,0,5],[0,1,0,0,-5],[1,0,0,0,5],[1,1,0,0,-5]];perimeter=orthogonalPerimeter;outlineConnect=0;targetShapes=umlLifeline;portConstraint=eastwest;newEdgeStyle={&quot;curved&quot;:0,&quot;rounded&quot;:0};" vertex="1" parent="tga_QLn9dsM_9BTm4A0y-3">
          <mxGeometry x="45" y="160" width="10" height="76" as="geometry" />
        </mxCell>
        <mxCell id="tga_QLn9dsM_9BTm4A0y-4" value="Sinh viên" style="shape=umlLifeline;perimeter=lifelinePerimeter;whiteSpace=wrap;html=1;container=1;dropTarget=0;collapsible=0;recursiveResize=0;outlineConnect=0;portConstraint=eastwest;newEdgeStyle={&quot;curved&quot;:0,&quot;rounded&quot;:0};" vertex="1" parent="1">
          <mxGeometry x="691" y="3" width="100" height="410" as="geometry" />
        </mxCell>
        <mxCell id="tga_QLn9dsM_9BTm4A0y-6" value="Gửi thông báo" style="text;strokeColor=none;fillColor=none;html=1;align=center;verticalAlign=middle;whiteSpace=wrap;rounded=0;fontSize=16;" vertex="1" parent="1">
          <mxGeometry x="55" y="89" width="112" height="30" as="geometry" />
        </mxCell>
        <mxCell id="tga_QLn9dsM_9BTm4A0y-8" value="Lưu vào" style="text;strokeColor=none;fillColor=none;html=1;align=center;verticalAlign=middle;whiteSpace=wrap;rounded=0;fontSize=16;" vertex="1" parent="1">
          <mxGeometry x="334" y="124" width="70" height="30" as="geometry" />
        </mxCell>
        <mxCell id="tga_QLn9dsM_9BTm4A0y-11" value="Trả về danh sách sinh viên" style="text;strokeColor=none;fillColor=none;html=1;align=center;verticalAlign=middle;whiteSpace=wrap;rounded=0;fontSize=16;" vertex="1" parent="1">
          <mxGeometry x="266" y="215" width="203" height="30" as="geometry" />
        </mxCell>
        <mxCell id="tga_QLn9dsM_9BTm4A0y-14" value="Gửi thông báo đến từng sinh viên (qua email, ứng dụng, v.v.)." style="text;strokeColor=none;fillColor=none;html=1;align=center;verticalAlign=middle;whiteSpace=wrap;rounded=0;fontSize=16;" vertex="1" parent="1">
          <mxGeometry x="273" y="330" width="453" height="30" as="geometry" />
        </mxCell>
      </root>
    </mxGraphModel>
  </diagram>
</mxfile>
